<?xml version="1.0" standalone="no"?><!DOCTYPE svg PUBLIC "-//W3C//DTD SVG 1.1//EN" "http://www.w3.org/Graphics/SVG/1.1/DTD/svg11.dtd"><svg t="1733557053833" class="icon" viewBox="0 0 1152 1024" version="1.1" xmlns="http://www.w3.org/2000/svg" p-id="8179" xmlns:xlink="http://www.w3.org/1999/xlink" width="225" height="200"><path d="M982.8352 276.4032h93.5936c12.9024 0 23.3472 10.4704 23.3472 23.424a23.3728 23.3728 0 0 1-23.3472 23.5008h-93.5936v-46.9248z m0 141.5424h93.5936c12.9024 0 23.3472 10.4448 23.3472 23.424a23.3216 23.3216 0 0 1-23.3472 23.424h-93.5936v-46.848z m0 141.5168h93.5936c12.9024 0 23.3472 10.4704 23.3472 23.424a23.3216 23.3216 0 0 1-23.3472 23.424h-93.5936v-46.848z m0 141.4656h93.5936c12.9024 0 23.3472 10.496 23.3472 23.4752a23.3728 23.3728 0 0 1-23.3472 23.4496h-93.5936V700.928zM101.1712 276.4032h93.5936v47.3088H101.1712a23.3216 23.3216 0 0 1-23.3472-23.4752 22.8864 22.8864 0 0 1 23.3472-23.8848v0.0512z m0 141.5168h93.5936v47.3088H101.1712a23.3216 23.3216 0 0 1-23.3472-23.4752c0-12.9536 9.984-23.808 23.3472-23.808z m0 141.5424h93.5936v46.848H101.1712a23.3216 23.3216 0 0 1-23.3472-23.424 22.784 22.784 0 0 1 23.3472-23.424z m0 141.4656h93.5936v47.3088H101.1712a23.3216 23.3216 0 0 1-23.3472-23.424 22.8864 22.8864 0 0 1 23.3472-23.8848z" fill="#FE9F51" p-id="8180"></path><path d="M984.064 206.464c0-51.9168-41.984-94.208-93.5936-94.208h-607.488c-51.6096 0-93.6448 42.2912-93.6448 94.208V817.408c0 51.9168 41.984 94.208 93.6448 94.208h607.0784c51.6096 0 93.6448-42.2912 93.6448-94.208V206.464h0.4096-0.0512zM893.44 870.0928H284.2112c-28.3136 0-49.1008-23.04-49.1008-51.5072V484.9664H565.504c4.608 0 8.704-0.8448 12.4928-3.3536l149.3504-109.2864a71.68 71.68 0 0 0 29.952 7.1168 70.4512 70.4512 0 0 0 70.3488-70.7584c0-38.9376-31.6416-70.784-70.3488-70.784-38.656 0-70.2976 31.8464-70.2976 70.784 0 12.544 3.328 23.8848 8.704 33.8944l-137.216 100.4288H235.1104V205.6192c0-28.416 20.7872-51.456 49.1008-51.456h609.1776c28.3136 0 49.1008 23.04 49.1008 51.456v333.7216H612.096a20.736 20.736 0 0 0-12.4928 3.328l-149.3504 109.696a71.68 71.68 0 0 0-29.952-7.0912 70.4512 70.4512 0 0 0-70.3488 70.7328c0 38.9376 31.6416 70.784 70.3488 70.784 38.656 0 70.2976-31.8464 70.2976-70.784 0-12.5184-3.328-23.8336-8.704-33.8944l137.2672-100.48h323.328v237.3888c0 28.0576-20.7872 51.072-49.1008 51.072h0.0512z" fill="#FE9F51" p-id="8181"></path></svg>