<?xml version="1.0" standalone="no"?><!DOCTYPE svg PUBLIC "-//W3C//DTD SVG 1.1//EN" "http://www.w3.org/Graphics/SVG/1.1/DTD/svg11.dtd"><svg t="1733556962495" class="icon" viewBox="0 0 1024 1024" version="1.1" xmlns="http://www.w3.org/2000/svg" p-id="3069" xmlns:xlink="http://www.w3.org/1999/xlink" width="200" height="200"><path d="M912.564706 277.082353c-54.211765-60.235294-180.705882-180.705882-240.941177-240.941177-24.094118-27.105882-60.235294-36.141176-93.364705-36.141176H150.588235C99.388235 0 60.235294 39.152941 60.235294 90.352941v843.294118c0 51.2 39.152941 90.352941 90.352941 90.352941h704.752941c57.223529 0 84.329412-27.105882 87.341177-84.329412V349.364706c0-21.082353-3.011765-45.176471-30.117647-72.282353zM325.270588 129.505882h192.752941c48.188235 0 84.329412 39.152941 84.329412 84.329412 0 48.188235-39.152941 84.329412-84.329412 84.329412H325.270588C277.082353 298.164706 240.941176 262.023529 240.941176 213.835294c0-48.188235 39.152941-84.329412 84.329412-84.329412z m454.776471 692.705883c3.011765 45.176471-36.141176 84.329412-84.329412 84.329411h-391.529412c-48.188235 0-84.329412-39.152941-84.329411-84.329411v-222.870589c0-48.188235 39.152941-84.329412 84.329411-84.329411h391.529412c48.188235 0 84.329412 39.152941 84.329412 84.329411v222.870589z" fill="#AC8CF9" p-id="3070"></path><path d="M701.741176 683.670588c0 51.2-42.164706 90.352941-90.352941 90.352941-51.2 0-90.352941-42.164706-90.352941-90.352941s42.164706-90.352941 90.352941-90.352941c48.188235-3.011765 90.352941 39.152941 90.352941 90.352941" fill="#AC8CF9" p-id="3071"></path></svg>